<svg xmlns="http://www.w3.org/2000/svg" width="506" height="648" version="1"><g fill="#1E4147" fill-rule="evenodd"><path d="M495 294c-8-8-19-13-30-12l-134 7 74-83c10-12 13-28 9-43-2-9-8-18-17-24L221 37c-15-9-33-7-45 4l-86 77a38 38 0 1 0 51 57l65-58 54 31-95 109c-39 6-75 24-103 50l50 50a126 126 0 0 1 211 94c0 32-12 62-33 84l50 50a196 196 0 0 0 33-221l52-3-12 155a38 38 0 0 0 76 6l16-198c1-12-3-22-10-30zM423 129a64 64 0 1 0 0-129 64 64 0 0 0 0 129zM197 577A126 126 0 0 1 92 380l-50-51a197 197 0 0 0 276 276l-50-50c-21 14-45 22-71 22z"/></g></svg>
